# xmcd
#
# Track frame offsets:
#	150
#	17825
#	31962
#	49460
#	67760
#	83160
#	105352
#	121757
#	135462
#	148165
#	166840
#	179267
#	193565
#	209462
#	229447
#	250615
#
# Disc length: 3541 seconds
#
# Revision: 1
# Processed by: cddbd v1.4PL0 Copyright (c) Steve Scherf et al.
# Submitted via: audiograbber 1.82.02
#
DISCID=d50dd310
DTITLE=Salena Jones - The Best Of Salena Jones 2
DYEAR=2002
DGENRE=Blues
TTITLE0=I Don't Want To Miss A Thing
TTITLE1=I Can See Clearly Now
TTITLE2=If I Fell
TTITLE3=Something
TTITLE4=If
TTITLE5=Bridge Over Troubled Water
TTITLE6=My Way
TTITLE7=The Way We Were
TTITLE8=A Song For You
TTITLE9=And I Love You So
TTITLE10=Every Breath You Take
TTITLE11=Lovely Day
TTITLE12=Got To Get Into My Life
TTITLE13=We're All Alone
TTITLE14=Help Me Make It Through The Night
TTITLE15=Superwoman
EXTD=APC JVC 282
EXTT0=
EXTT1=
EXTT2=
EXTT3=
EXTT4=
EXTT5=
EXTT6=
EXTT7=
EXTT8=
EXTT9=
EXTT10=
EXTT11=
EXTT12=
EXTT13=
EXTT14=
EXTT15=
PLAYORDER=
